HIERARCHY
ROOT character_B_root
{
	OFFSET 0.000000 0.000000 0.000000
	CHANNELS 6 Xposition Yposition Zposition Xrotation Yrotation Zrotation
	JOINT character_B_pelvis
	{
		OFFSET 0.000000 0.000000 0.000000
		CHANNELS 3 Xrotation Yrotation Zrotation
		JOINT character_B_spine
		{
			OFFSET -0.005949 0.551378 0.000000
			CHANNELS 3 Xrotation Yrotation Zrotation
			JOINT character_B_head
			{
				OFFSET -0.011221 0.241134 0.000000
				CHANNELS 3 Xrotation Yrotation Zrotation
				JOINT character_B_nose
				{
					OFFSET -0.004159 -0.142665 -0.000261
					CHANNELS 3 Xrotation Yrotation Zrotation
					End Site
					{
						OFFSET 0.000000 0.050000 0.000000
					}
				}
			}
			JOINT character_B_left_shoulder
			{
				OFFSET 0.093188 -0.066956 0.092540
				CHANNELS 3 Xrotation Yrotation Zrotation
				JOINT character_B_left_elbow
				{
					OFFSET 0.026481 -0.252143 -0.089385
					CHANNELS 3 Xrotation Yrotation Zrotation
					JOINT character_B_left_wrist
					{
						OFFSET -0.001396 -0.164778 -0.154831
						CHANNELS 3 Xrotation Yrotation Zrotation
						End Site
						{
							OFFSET 0.000000 0.050000 0.000000
						}
					}
				}
			}
			JOINT character_B_right_shoulder
			{
				OFFSET -0.052646 -0.054758 0.152841
				CHANNELS 3 Xrotation Yrotation Zrotation
				JOINT character_B_right_elbow
				{
					OFFSET -0.025750 -0.252567 -0.055740
					CHANNELS 3 Xrotation Yrotation Zrotation
					JOINT character_B_right_wrist
					{
						OFFSET 0.022565 -0.178373 -0.161123
						CHANNELS 3 Xrotation Yrotation Zrotation
						End Site
						{
							OFFSET 0.000000 0.050000 0.000000
						}
					}
				}
			}
		}
		JOINT character_B_left_hip
		{
			OFFSET 0.053047 -0.014449 0.105832
			CHANNELS 3 Xrotation Yrotation Zrotation
			JOINT character_B_left_knee
			{
				OFFSET 0.010852 -0.388560 0.128200
				CHANNELS 3 Xrotation Yrotation Zrotation
				JOINT character_B_left_ankle
				{
					OFFSET -0.005897 -0.374408 0.161260
					CHANNELS 3 Xrotation Yrotation Zrotation
					JOINT character_B_left_big_toe
					{
						OFFSET 0.012109 -0.098215 0.034452
						CHANNELS 3 Xrotation Yrotation Zrotation
						End Site
						{
							OFFSET 0.000000 0.050000 0.000000
						}
					}
					JOINT character_B_left_small_toe
					{
						OFFSET 0.041617 -0.095586 0.019459
						CHANNELS 3 Xrotation Yrotation Zrotation
						End Site
						{
							OFFSET 0.000000 0.050000 0.000000
						}
					}
					JOINT character_B_left_heel
					{
						OFFSET -0.014884 -0.052778 0.025198
						CHANNELS 3 Xrotation Yrotation Zrotation
						End Site
						{
							OFFSET 0.000000 0.050000 0.000000
						}
					}
				}
			}
		}
		JOINT character_B_right_hip
		{
			OFFSET -0.043381 -0.011457 0.270438
			CHANNELS 3 Xrotation Yrotation Zrotation
			JOINT character_B_right_knee
			{
				OFFSET 0.014721 -0.382947 0.164918
				CHANNELS 3 Xrotation Yrotation Zrotation
				JOINT character_B_right_ankle
				{
					OFFSET 0.029970 -0.363014 0.179744
					CHANNELS 3 Xrotation Yrotation Zrotation
					JOINT character_B_right_big_toe
					{
						OFFSET 0.007171 -0.100675 0.041990
						CHANNELS 3 Xrotation Yrotation Zrotation
						End Site
						{
							OFFSET 0.000000 0.050000 0.000000
						}
					}
					JOINT character_B_right_small_toe
					{
						OFFSET -0.022736 -0.093093 0.035638
						CHANNELS 3 Xrotation Yrotation Zrotation
						End Site
						{
							OFFSET 0.000000 0.050000 0.000000
						}
					}
					JOINT character_B_right_heel
					{
						OFFSET 0.012696 -0.052984 0.028899
						CHANNELS 3 Xrotation Yrotation Zrotation
						End Site
						{
							OFFSET 0.000000 0.050000 0.000000
						}
					}
				}
			}
		}
	}
}
MOTION
Frames: 14
Frame Time: 0.03333333
0.973324 -0.114148 2.287915 0.000000 0.000000 0.000000 3.955521 -1.183219 -11.752701 -11.486453 -12.741172 -7.363753 28.555459 21.271069 23.130730 0.000000 0.000000 0.000000 31.544904 24.740097 -8.742648 -28.578967 -18.819039 19.221967 -0.000000 0.000000 -0.000000 -3.764097 25.916488 -27.114662 -10.372778 14.120979 14.755502 -0.000000 0.000000 0.000000 -16.045127 -2.046559 13.535154 3.124614 -8.151492 -25.181978 22.090494 13.058712 41.195520 -0.000000 0.000000 0.000000 -0.000000 0.000000 0.000000 -0.000000 0.000000 0.000000 -15.257783 -1.791686 13.518249 -8.977877 -7.046202 -21.276431 115.745685 -33.951797 111.826854 0.000000 0.000000 -0.000000 0.000000 0.000000 -0.000000 0.000000 0.000000 -0.000000
0.956356 -0.130684 2.344913 0.000000 0.000000 0.000000 1.685039 -4.099169 -11.935633 -11.721900 -9.367734 -12.199282 29.709745 24.435342 28.199079 0.000000 0.000000 0.000000 30.259020 27.574617 -4.604866 -25.333566 -22.489267 24.517764 0.000000 0.000000 0.000000 -5.291136 23.593655 -13.882366 0.143897 14.024337 15.583239 0.000000 0.000000 -0.000000 -12.389506 1.749333 14.719538 1.138696 -7.402466 -22.998011 20.609649 11.625085 38.865049 0.000000 0.000000 -0.000000 0.000000 0.000000 -0.000000 0.000000 0.000000 -0.000000 -12.676079 2.850253 17.844088 -9.622405 -10.063247 -32.212299 111.834646 -32.536105 109.272040 -0.000000 0.000000 -0.000000 -0.000000 0.000000 -0.000000 -0.000000 0.000000 -0.000000
0.932528 -0.153918 2.385905 0.000000 0.000000 0.000000 0.065936 -6.451262 -12.615416 -11.662104 -5.687409 -17.648445 20.004285 22.990554 40.087983 0.000000 0.000000 0.000000 25.725192 28.847408 5.561505 -19.618702 -23.695891 28.091058 0.000000 0.000000 -0.000000 -4.918784 18.105024 6.022819 10.167283 9.056389 13.561692 -0.000000 0.000000 -0.000000 -9.568583 5.446569 18.298934 -1.860757 -7.327477 -24.182029 25.971945 8.649606 35.611528 -0.000000 0.000000 0.000000 -0.000000 0.000000 0.000000 -0.000000 0.000000 0.000000 -9.911690 7.590116 23.320215 -8.255177 -14.839531 -43.516863 113.754500 -26.963309 113.228446 -0.000000 0.000000 -0.000000 -0.000000 0.000000 -0.000000 -0.000000 0.000000 -0.000000
0.905063 -0.184299 2.406996 0.000000 0.000000 0.000000 -0.809490 -8.019628 -13.620183 -11.096160 -2.330588 -23.075651 13.010334 20.076462 50.552459 -0.000000 0.000000 -0.000000 19.883199 28.306318 16.783371 -17.205411 -22.944165 27.401821 -0.000000 0.000000 0.000000 -2.839430 11.434605 29.760997 11.730430 -2.740258 10.858202 0.000000 0.000000 -0.000000 -7.990311 7.946351 21.242660 -3.513432 -7.422684 -25.311781 29.021236 7.521324 36.108888 0.000000 0.000000 -0.000000 0.000000 0.000000 -0.000000 0.000000 0.000000 -0.000000 -9.472158 10.892286 28.902538 -5.345838 -19.443352 -50.409693 119.829806 -21.936438 120.021722 -0.000000 0.000000 -0.000000 -0.000000 0.000000 -0.000000 -0.000000 0.000000 -0.000000
0.881252 -0.209599 2.411926 0.000000 0.000000 0.000000 -0.821975 -8.757071 -14.904291 -9.955707 0.996329 -27.928605 8.162562 15.660156 59.793552 -0.000000 0.000000 0.000000 14.111225 25.268264 27.324197 -14.620608 -22.049380 26.670822 0.000000 0.000000 0.000000 -1.305037 4.490322 50.183577 1.699054 -16.368328 10.039683 0.000000 0.000000 -0.000000 -7.647880 9.080880 23.686731 -4.483096 -7.357668 -25.702922 22.726450 9.460515 37.672458 0.000000 0.000000 -0.000000 0.000000 0.000000 -0.000000 0.000000 0.000000 -0.000000 -10.321731 12.640350 34.004040 -2.809913 -23.532338 -54.902259 122.729104 -17.965162 123.606160 0.000000 0.000000 -0.000000 0.000000 0.000000 -0.000000 0.000000 0.000000 -0.000000
0.862557 -0.235548 2.416511 0.000000 0.000000 0.000000 -1.574382 -10.012749 -15.206786 -8.160401 5.545946 -31.858055 5.945696 10.903146 64.993648 -0.000000 0.000000 -0.000000 14.067400 23.618155 35.592382 -6.719146 -23.884095 32.813697 0.000000 0.000000 -0.000000 -2.241583 -6.556568 67.245338 -1.507025 -25.377166 5.884625 0.000000 0.000000 -0.000000 -5.797596 11.413803 24.985477 -9.597835 -6.399376 -27.173427 19.935482 11.381512 34.724137 -0.000000 0.000000 -0.000000 -0.000000 0.000000 -0.000000 -0.000000 0.000000 -0.000000 -9.077221 15.651598 37.048590 -2.549704 -24.409328 -54.168430 126.324986 -15.469759 126.660512 -0.000000 0.000000 0.000000 -0.000000 0.000000 0.000000 -0.000000 0.000000 0.000000
0.839292 -0.259989 2.389767 0.000000 0.000000 0.000000 -1.719653 -11.076987 -15.933572 -6.635410 10.374222 -34.461745 5.210319 5.786148 68.890984 0.000000 0.000000 0.000000 14.426114 21.374133 41.382779 4.879344 -25.228233 43.204990 -0.000000 0.000000 0.000000 0.654893 -14.811526 80.729310 6.102234 -28.020939 0.737529 -0.000000 0.000000 0.000000 -6.652926 12.129840 25.760095 -12.624086 -4.898934 -26.288127 16.622200 4.362052 34.306684 0.000000 0.000000 -0.000000 0.000000 0.000000 -0.000000 0.000000 0.000000 -0.000000 -9.133177 18.036757 40.732806 3.201310 -27.743813 -51.057008 124.712262 -11.531730 129.503532 0.000000 0.000000 0.000000 0.000000 0.000000 0.000000 0.000000 0.000000 0.000000
0.817727 -0.281563 2.340943 0.000000 0.000000 0.000000 -1.338176 -10.775071 -16.211655 -4.522137 14.247553 -37.348819 5.134471 0.323930 72.230839 -0.000000 0.000000 -0.000000 14.693886 18.020763 47.564326 15.431845 -23.353969 49.381981 -0.000000 0.000000 -0.000000 5.954853 -17.374027 91.217776 21.826894 -26.767415 -5.827678 0.000000 0.000000 0.000000 -8.335097 11.284599 26.822438 -15.019246 -4.002608 -28.066456 22.881897 -9.751558 32.088074 -0.000000 0.000000 -0.000000 -0.000000 0.000000 -0.000000 -0.000000 0.000000 -0.000000 -9.289110 18.909501 43.597684 6.594782 -29.915415 -48.948698 123.516194 -8.774054 130.957740 -0.000000 0.000000 -0.000000 -0.000000 0.000000 -0.000000 -0.000000 0.000000 -0.000000
0.796634 -0.297794 2.293673 0.000000 0.000000 0.000000 -0.659885 -9.701570 -16.503217 -3.416043 15.468868 -38.757556 5.237227 -2.948062 73.682271 0.000000 0.000000 0.000000 15.586292 16.600888 52.344292 24.398196 -20.195051 51.892056 -0.000000 0.000000 -0.000000 7.543956 -21.739481 96.674585 44.688630 -30.116553 -8.261721 0.000000 0.000000 -0.000000 -10.885154 8.874052 26.674313 -15.243989 -3.346874 -28.097408 28.161973 -15.315737 33.151515 0.000000 0.000000 0.000000 0.000000 0.000000 0.000000 0.000000 0.000000 0.000000 -7.679765 20.297375 46.240827 5.225464 -31.731971 -49.680185 122.517419 -6.531649 130.868476 -0.000000 0.000000 0.000000 -0.000000 0.000000 0.000000 -0.000000 0.000000 0.000000
0.778303 -0.309371 2.242313 0.000000 0.000000 0.000000 -0.264096 -8.729093 -16.222711 -3.988407 13.253442 -36.695817 4.636156 -2.241556 69.750301 0.000000 0.000000 0.000000 17.888379 19.306056 51.984193 27.296214 -18.806747 51.748273 0.000000 0.000000 0.000000 4.948235 -25.458320 95.446967 62.626084 -32.694816 -9.289701 0.000000 0.000000 -0.000000 -10.359953 8.701770 28.210964 -18.565232 -3.224903 -34.566867 33.878653 -6.431172 26.717339 -0.000000 0.000000 -0.000000 -0.000000 0.000000 -0.000000 -0.000000 0.000000 -0.000000 -7.398726 20.233743 47.343028 5.548378 -32.968115 -49.871066 121.961431 -4.941129 130.272753 0.000000 0.000000 -0.000000 0.000000 0.000000 -0.000000 0.000000 0.000000 -0.000000
0.765926 -0.316805 2.206590 0.000000 0.000000 0.000000 -0.253260 -8.066770 -15.633776 -4.413303 11.294045 -35.440654 4.226676 -1.083806 65.125563 -0.000000 0.000000 0.000000 19.858861 21.810289 51.092945 28.220691 -18.254906 51.221639 0.000000 0.000000 0.000000 2.432113 -27.955969 93.919533 74.767027 -34.250467 -9.022718 -0.000000 0.000000 0.000000 -8.465047 9.532678 29.485314 -21.854821 -3.268146 -41.333845 37.407077 -0.279092 22.597193 -0.000000 0.000000 -0.000000 -0.000000 0.000000 -0.000000 -0.000000 0.000000 -0.000000 -5.667774 21.126785 47.529254 3.964904 -33.800819 -50.889944 121.518038 -3.762168 129.442246 -0.000000 0.000000 -0.000000 -0.000000 0.000000 -0.000000 -0.000000 0.000000 -0.000000
0.758194 -0.320194 2.219274 0.000000 0.000000 0.000000 -0.335027 -7.832243 -14.983933 -4.724079 9.871045 -34.355016 3.852162 0.021431 61.014945 -0.000000 0.000000 0.000000 20.278981 22.252940 49.444792 30.496371 -18.070535 53.045128 -0.000000 0.000000 -0.000000 -1.264853 -30.489434 90.383081 77.331137 -33.927207 -7.943811 0.000000 0.000000 0.000000 -1.475520 13.428108 30.740847 -29.621305 -2.913243 -48.174708 38.603854 3.463871 19.746345 -0.000000 0.000000 -0.000000 -0.000000 0.000000 -0.000000 -0.000000 0.000000 -0.000000 -4.555612 21.869411 47.462686 3.586698 -34.100142 -50.636343 121.186211 -3.776221 130.351195 0.000000 0.000000 -0.000000 0.000000 0.000000 -0.000000 0.000000 0.000000 -0.000000
0.757883 -0.321273 2.273501 0.000000 0.000000 0.000000 -0.680599 -8.168081 -14.447196 -5.024407 9.126735 -33.218398 3.655248 1.177745 58.318520 -0.000000 0.000000 -0.000000 20.190762 22.058538 47.633327 32.982677 -17.873500 54.939725 0.000000 0.000000 0.000000 -4.916671 -32.146882 86.585632 75.385431 -33.301960 -7.175311 0.000000 0.000000 -0.000000 3.178307 16.784886 31.908823 -33.559330 -3.260258 -53.548584 37.371958 5.512053 18.227604 -0.000000 0.000000 -0.000000 -0.000000 0.000000 -0.000000 -0.000000 0.000000 -0.000000 -3.609232 22.935487 47.340391 3.687933 -33.991826 -49.705857 120.958333 -4.641532 132.436080 -0.000000 0.000000 -0.000000 -0.000000 0.000000 -0.000000 -0.000000 0.000000 -0.000000
0.750451 -0.323696 2.269388 0.000000 0.000000 0.000000 -0.093385 -6.962378 -13.228509 -6.568240 6.542514 -29.051249 4.291333 2.690375 53.264233 -0.000000 0.000000 0.000000 21.813796 20.779088 42.219088 35.833955 -16.997562 54.182862 -0.000000 0.000000 0.000000 -10.893296 -32.001664 77.431162 70.332355 -33.365870 -3.240881 -0.000000 0.000000 0.000000 5.659963 17.635850 32.911528 -32.481327 -7.090473 -59.941284 32.264877 7.911577 22.177057 -0.000000 0.000000 -0.000000 -0.000000 0.000000 -0.000000 -0.000000 0.000000 -0.000000 -4.469189 20.993233 46.145412 0.733330 -29.676986 -48.857828 120.315068 -9.831447 132.778342 -0.000000 0.000000 -0.000000 -0.000000 0.000000 -0.000000 -0.000000 0.000000 -0.000000
